<svg xmlns:xlink="http://www.w3.org/1999/xlink" xmlns="http://www.w3.org/2000/svg" viewBox="0 0 18 18" role="img" aria-labelledby="aazh7rqoohefyrnha6xlbstjvxajgvc0" class="ez-resource-show__attribution-info__icon ez-resource-show__attribution-info__checkmark" width="18"  height="18" ><desc id="aazh7rqoohefyrnha6xlbstjvxajgvc0" fill="#52C648">Icono de marca de verificación</desc><path d="M12.707 7.707a1 1 0 0 0-1.414-1.414L8 9.586 6.707 8.293a1 1 0 1 0-1.414 1.414l2 2a1 1 0 0 0 1.414 0l4-4z" fill="#52C648"></path><path fill-rule="evenodd" d="M18 9A9 9 0 1 1 0 9a9 9 0 1 1 18 0zm-2 0A7 7 0 1 1 2 9a7 7 0 1 1 14 0z" fill="#52C648"></path></svg>